<?xml version="1.0" standalone="no"?><!DOCTYPE svg PUBLIC "-//W3C//DTD SVG 1.1//EN" "http://www.w3.org/Graphics/SVG/1.1/DTD/svg11.dtd"><svg t="1660149203939" class="icon" viewBox="0 0 1024 1024" version="1.1" xmlns="http://www.w3.org/2000/svg" p-id="2815" xmlns:xlink="http://www.w3.org/1999/xlink" width="1000" height="1000"><defs><style type="text/css">@font-face { font-family: feedback-iconfont; src: url("//at.alicdn.com/t/font_1031158_u69w8yhxdu.woff2?t=1630033759944") format("woff2"), url("//at.alicdn.com/t/font_1031158_u69w8yhxdu.woff?t=1630033759944") format("woff"), url("//at.alicdn.com/t/font_1031158_u69w8yhxdu.ttf?t=1630033759944") format("truetype"); }
</style></defs><path d="M797.7 938.7H228.3c-70 0-126.9-56.9-126.9-126.9V272.4c0-70 56.9-126.9 126.9-126.9h569.5c70 0 126.9 56.9 126.9 126.9v539.5c-0.1 69.9-57 126.8-127 126.8zM228.3 231c-22.8 0-41.4 18.6-41.4 41.4v539.5c0 22.8 18.6 41.4 41.4 41.4h569.5c22.8 0 41.4-18.6 41.4-41.4V272.4c0-22.8-18.6-41.4-41.4-41.4H228.3z" fill="#333333" p-id="2816"></path><path d="M313.2 292.8c-23.6 0-42.8-19.1-42.8-42.8V126.4c0-23.6 19.1-42.8 42.8-42.8 23.6 0 42.8 19.1 42.8 42.8V250c0 23.7-19.1 42.8-42.8 42.8zM686.8 292.8c-23.6 0-42.8-19.1-42.8-42.8V126.4c0-23.6 19.1-42.8 42.8-42.8 23.6 0 42.8 19.1 42.8 42.8V250c-0.1 23.7-19.2 42.8-42.8 42.8zM881.9 447.5H144.1c-23.6 0-42.8-19.1-42.8-42.8 0-23.6 19.1-42.8 42.8-42.8h737.7c23.6 0 42.8 19.1 42.8 42.8 0 23.7-19.1 42.8-42.7 42.8zM485.3 800.2c-10.9 0-21.9-4.2-30.2-12.5L336.5 669c-16.7-16.7-16.7-43.8 0-60.5 16.7-16.7 43.8-16.7 60.5 0l88.4 88.4 177.3-177.3c16.7-16.7 43.8-16.7 60.5 0 16.7 16.7 16.7 43.8 0 60.5L515.5 787.6c-8.3 8.4-19.3 12.6-30.2 12.6z" fill="#333333" p-id="2817"></path></svg>